/* XPM */
static char *ddbd415b870e44d99c403f70f69315d5JCOIbLJhPJvnstQG[] = {
/* columns rows colors chars-per-pixel */
"64 64 153 2 ",
"   c #1C0F07",
".  c #1E130B",
"X  c #1E1510",
"o  c #220E07",
"O  c #220F09",
"+  c #221107",
"@  c #24150D",
"#  c #28160E",
"$  c #25180F",
"%  c #2A190E",
"&  c #241611",
"*  c #291710",
"=  c #251A14",
"-  c #2B1C14",
";  c #261C1A",
":  c #2A1E1A",
">  c #311E15",
",  c #311F18",
"<  c #2D2117",
"1  c #26211E",
"2  c #2D221C",
"3  c #2E281C",
"4  c #332116",
"5  c #33241C",
"6  c #38261D",
"7  c #35281E",
"8  c #3B291E",
"9  c #2D2422",
"0  c #2D2A26",
"q  c #2E2B28",
"w  c #332622",
"e  c #392621",
"r  c #352A24",
"t  c #3B2B24",
"y  c #352C29",
"u  c #3B2E29",
"i  c #3D3026",
"p  c #36302A",
"a  c #3D312B",
"s  c #3E3531",
"d  c #412B1E",
"f  c #412D24",
"g  c #412E29",
"h  c #442C28",
"j  c #472F2B",
"k  c #452D2B",
"l  c #412E28",
"z  c #433127",
"x  c #413029",
"c  c #433029",
"v  c #40312A",
"b  c #42312A",
"n  c #40332A",
"m  c #41332A",
"M  c #41322B",
"N  c #40332B",
"B  c #43322A",
"V  c #43322B",
"C  c #44312B",
"Z  c #47302A",
"A  c #45322B",
"S  c #44332B",
"D  c #46322B",
"F  c #41342B",
"G  c #40312C",
"H  c #42302C",
"J  c #43312D",
"K  c #41322D",
"L  c #40332D",
"P  c #42332C",
"I  c #42332E",
"U  c #44332C",
"Y  c #41342C",
"T  c #42352C",
"R  c #43342D",
"E  c #42352D",
"W  c #43362D",
"Q  c #41342E",
"!  c #40352F",
"~  c #42352F",
"^  c #43362E",
"/  c #45342C",
"(  c #45342D",
")  c #44362D",
"_  c #44352E",
"`  c #46352E",
"'  c #45362F",
"]  c #44372F",
"[  c #47362F",
"{  c #43332B",
"}  c #48312B",
"|  c #48302C",
" . c #48342C",
".. c #45382F",
"X. c #43392F",
"o. c #403531",
"O. c #413630",
"+. c #433630",
"@. c #423731",
"#. c #433532",
"$. c #413632",
"%. c #403732",
"&. c #423733",
"*. c #443530",
"=. c #453631",
"-. c #443731",
";. c #463730",
":. c #443633",
">. c #463732",
",. c #423631",
"<. c #4A3230",
"1. c #4B3331",
"2. c #483730",
"3. c #4D3533",
"4. c #483632",
"5. c #413833",
"6. c #433832",
"7. c #453830",
"8. c #473930",
"9. c #463931",
"0. c #453832",
"q. c #443933",
"w. c #463933",
"e. c #433834",
"r. c #423934",
"t. c #433A35",
"y. c #443935",
"u. c #443937",
"i. c #443B36",
"p. c #443934",
"a. c #493831",
"s. c #483932",
"d. c #493A33",
"f. c #4A3A36",
"g. c #453A38",
"h. c #463D38",
"j. c #473C38",
"k. c #473E39",
"l. c #463C3B",
"z. c #473D3C",
"x. c #463B39",
"c. c #483D39",
"v. c #493E3A",
"b. c #483F3A",
"n. c #483E3D",
"m. c #4A3F3D",
"M. c #4E3F3A",
"N. c #49403B",
"B. c #4B423D",
"V. c #4D423E",
"C. c #4E4540",
"Z. c #504541",
"A. c #514642",
/* pixels */
"C.N.r.r.i.5.P t P %.( ;.2.( U U U | | | h | | k | h h k <.3.<.k U U N U ;.y.y.#.%.r.u.x.l.l.z.z.z.z.l.l.V.A.A.A.A.r.r.r.r.s s u ",
"B.h.r.5.5.^ i y u i N P U U l l f t f f f f f 6 , 6 e e e e e e f u t t u k a l e y y y s u s q u s u #.:.:.u.u.h.u u u y u y w ",
"b.i.s s a ^ u r t u u P N N f l k h f f h z k f h f h u k e k k f t r e r u t u y u y a u y y u u s u.u.u.u.#.#.r.u y a y u y w ",
"h.i.%.a a N u r u u i i l l l t t t f t t t t t f f t h u u k k N u f u P u u u e r y y y y y q u u s s a s a s r.y y a y u u w ",
"h.r.5.s %.a i u t u i i l l z i t f t t t t t t e w e e u u k u l N l P P l u u e y e u y u u u u u a a u u s %.a y y a t y y r ",
"r.5.5.a a i t y y t e t t t t t f t t t t f t t u e u e h k k k u t u t u l r r e y u u u p a u a a u i a #.*.%.i r t i i y t y ",
"5.a a p t y y w 7 e r e e e t e 6 r 7 7 6 7 7 7 6 w e w e w r y u r e e e y e r w w w e y w w w y w 5 w u i u y a y u P p t i u ",
"a a p y r w w 5 r r 7 7 t e e e t i t i i t t t t t u u w w u a u u w 5 w e u u u u u t y u e u t r r u %.a.U r t w t N p t u t ",
"p s y r y t 2 7 t a ^ ^ U [ a.;...W W W W ^ ( 8.;.( ^ y w y e t t r e e y a *.*.^ ( a.d.8... .S %.8.;.%.%.;.;.a *.e y t t t u r ",
"a s p q y r 5 r u a P N C [ a.;./ W W N W ^ ^ ^ ^ ^ a t r e y t u t e e e u P *.i ^ 8.( ../ /  .P ;.%.P *.%.P u a y e u u u u r ",
"a s y y t r 2 w r i N N C ( [ ( W i i W i W N N i a i e 7 e i t u r w w e u a i P U / / / m  . .P P P N P P i t t r t t t i l r ",
"a a p y y r 5 5 r u u l N U U N N i W W W a N N i a a y r r y y t r w w e u N l U U / / z z  . .N P P l P P i t t w t i t t l t ",
"a s p y t r 2 w r l N l P U ( C z m W / W W W t a k u r 5 r e r y e 6 5 w i N z ( ( [ C z  . . .P U P P u P l t e 6 r N u f i r ",
"a s p r y r 2 5 r P P ^ ( 2.[ ( a W W / ( / N N k *.u e w w t r e r w 5 e u C / ( ( [ C z z z  .U U P P N P i t r 5 t i l t i t ",
"p s p 0 t r 3 r r N ( U ( 2.2.U N / / / ( / U U i P h e e e t t r r w w r u C C  .S  .S z  . . .U ( U P l P u t r 5 t ^ i u z t ",
"a s p r p r 5 5 w t N C U U U k z C z W / C C U u l u e e t u h t t e w w f N z z S S  . .z z  .P U U i l i u e 6 5 t ^ u t t t ",
"p a p 0 r w 2 2 r f l l C z z C  . . .z z / C  . .C t l 4 t t t e t t > t t k t f h z } z z z Z z z / / ^ ^ u t i p 3 i i i i 8 ",
"p a 7 7 r r 5 5 t r h f h h | | } z  .z } z C z h t e l , t r h t f l - t t h t t f z z  .z z z z z z z P i t r p 3 3 i 3 8 i 8 ",
"p a p 0 r r 4 5 e t f f f f h |  .Z z z z z k f t 8 6 t , t f l f N l > f e f f f t f z  . .Z z f d f z u t y 6 p 4 i p i i 8 8 ",
"i p r 3 y r 3 3 6 t t f f f h h  .z Z f t f f f t 8 6 t , t t l t N t , t t f t t t 8 8 z  . .z d f f f u t r r t 3 3 i i i 8 8 ",
"p i 0 3 y r < 5 e t f f f f h l z f z t d i f t t t e t 4 r t l t t t , t e f t f 8 6 6 f z  .Z z f d t t t t r r 2 r i i 8 i 8 ",
"3 p 7 p t r 5 5 w t e t f f h l f f f f 8 8 8 f 7 e e l 5 r t t t t e : l e t f f 6 6 8 8 h Z z d 8 t 8 t t r 3 r 3 t i i i i 8 ",
"7 r 3 p y r 2 5 6 e t f f t f f d f 8 t 8 8 t t 8 7 6 u , t r t u r e , r 6 e e e t 8 e t f f f i 8 8 8 e r r 2 w 3 r i z i z 8 ",
"3 p r 3 t y 2 5 5 w 6 8 e e f f f 8 8 8 t d t t 6 6 5 t - t t u u r e : r 5 9 e e e t f f t 8 t 8 8 6 7 7 r 2 5 w 2 r W i i i 8 ",
"r p 2 r t r 2 2 , 5 e e t t 8 e 6 6 8 8 t 8 t 7 6 6 4 r 5 i P t u e w : u , e e t e t t f t e e 4 8 7 7 7 7 3 3 r 2 i i t N 8 8 ",
"7 r r 9 y 7 2 4 2 5 6 e f t e 8 8 6 6 8 8 8 8 7 7 7 3 t 2 i i t u w e 9 u , w e 7 e 8 e 8 t 7 6 4 4 4 8 7 7 2 3 r 2 W i t z d 8 ",
"7 r 5 5 e w < 4 2 5 6 r e f t t 8 7 8 7 8 7 7 7 5 7 3 t 5 i a t u e e : u , w w 6 5 6 e 6 e 6 4 4 4 3 4 5 5 5 2 w 2 i N t z 8 8 ",
"3 y r 5 y w 2 5 5 5 4 6 7 t t f 8 8 6 8 7 8 7 7 5 5 2 e 2 i p t y e y 9 u w , w 5 6 e w 6 e w 6 8 8 8 3 7 r 2 w w 2 l i t f 8 d ",
"5 w w w r 5 2 5 5 5 4 5 6 8 8 t 6 7 6 6 7 6 3 4 5 5 < t 2 i t t w w w : u 9 5 5 w w 5 5 6 6 5 6 3 4 3 3 7 3 w 2 6 : u i t f 8 d ",
": w w 5 6 2 2 5 2 5 5 5 6 7 7 7 6 4 4 5 6 5 6 4 < 2 3 t 2 t t r w w e 9 u , 9 w 5 w 5 5 5 5 5 5 6 6 4 7 2 3 2 2 w 2 u z t f d 8 ",
"2 w w 2 w 5 - 6 2 4 2 5 6 5 7 7 5 4 4 5 7 3 5 2 < 5 < t < i i 7 r w r , u w w w w 5 5 5 5 5 4 6 4 4 < 4 2 3 9 5 5 : t N f f f f ",
": 6 w 5 5 5 2 5 4 2 5 4 3 5 5 4 4 < 4 4 < 5 4 4 < 3 2 y < i r r w w w : t 9 5 w w 5 w w 5 7 7 7 7 7 5 3 5 0 5 9 w 5 N l f C f f ",
"4 5 6 w 5 5 2 : r t y r 6 r w 7 7 7 p 7 7 i p t r 7 t r w e y y u e w 9 e P y.f.x.4.:.g.l.l.u.#.x.x.r.r.s r.#.#.w r k #.l f l f ",
"5 w w 5 5 2 5 4 4 5 4 6 4 5 5 6 3 3 3 3 3 3 2 7 3 3 5 2 e 9 e e e e , e r r u r u y u y u u y q y y y s a y y y e r u h f l U t ",
"5 w w 6 5 5 5 5 e w 6 e r t r e 7 7 3 7 3 7 6 5 5 6 5 w e e u e t t e e e e w 5 w w r w w y q 9 9 q y y s s y y u w u h N C C e ",
"r 6 r 6 w 5 5 6 w e r r t t t t 7 7 r r 7 7 7 6 6 6 w w e e h k t t e u r e y r w w w q y w y w q y p a s p s a u u <.x.a.[ k e ",
"6 r e 7 6 5 5 w 5 6 6 6 6 5 r 5 w e e 6 e 6 6 6 w 6 , e e e e e e e w e w e y t w w w w 9 w y w r q r y y u u u h u f.M.y.k l w ",
"6 6 e 7 5 5 6 w r r r r r 6 w 5 6 6 6 6 6 6 6 6 e e e e e e e e e e r e e r u a e e q r y y y y s p y y u u s *.*.P ;.;.t u l t ",
"5 5 r w r 5 5 5 e t t r e e r 6 6 6 6 6 6 6 6 6 e e e e e e e h u u u r r t u i u u u y e y u e a a a i a a s ^ u u u l e y l u ",
"5 w r 6 5 5 5 2 5 4 4 2 4 : 4 2 4 2 : 5 4 , 5 5 , , , e , e e e e e y y r e y t u e e w w y e w 5 w y y y y t t u e r u u k l e ",
"5 5 5 w 5 5 , : : 2 4 : - 2 - - < < 3 < < < 3 < 3 2 5 2 5 t %.i i u r 2 5 2 2 5 : 9 5 7 3 2 2 5 3 3 3 3 3 7 2 3 2 2 u u r e u e ",
": 5 5 5 5 5 4 : 5 6 e w w e r 6 7 7 t r 7 3 3 3 7 r r 2 2 p 5.i i i y 5 t y r t e w t r 6 5 7 t i p 7 3 7 p t 7 5 5 r u e u t e ",
"5 5 5 5 w 5 , 5 r t u i f N N i W W d...s a a a i r y 3 2 p 5.p u a r 7 y p t i k %.( ( N W ^ ..n n n i i i i 7 2 2 e u r u u w ",
": , 5 w 6 5 5 2 6 t t i N N / u i i W W i i i p p r r 2 3 p a u y u r 2 y t t p u i i N t i i W i n n i 8 i 7 7 4 : w u r e y w ",
", 2 5 6 5 5 5 4 r e u t t i i u 7 t i t t e r e i r 7 3 : t %.p p p r 3 0 7 7 i i 7 8 p 8 8 t i i i i 8 t t 7 5 5 2 5 y w e u w ",
"5 5 5 5 w 5 5 : 6 e t t t l l r h h z z W C N l t 7 r 2 5 u ;.a a a r 2 r r 7 i i i i i i i i z 8 8 8 8 p i t 5 5 2 5 r w e u w ",
": 5 5 w 5 5 2 4 5 r t i u N l t f f t f t f f u l t r 6 w u i.a s s y 5 r r t i 7 t 8 8 f 8 8 7 i i i i 8 i t 7 2 < 5 r w y y w ",
"6 5 w 5 5 5 , < 5 7 t f z C C l } h h f h h U U k t e e , u 2.^ W a t 0 r t t i W i z S S / / z i z i i i i y 5 5 - 5 w 9 e y 9 ",
"w 5 e 5 w 6 - 6 6 7 f f f z d d z f f f 8 f f f e i 6 5 2 5.%.i s s p < y 7 t t f t t f f f N f t f z i N z r 4 w : w w q w y w ",
"5 w r 2 6 r - 5 4 8 8 8 8 d d d d 8 f d f t z t 7 i 5 5 2 ^ a a s s p < y 5 t 8 f t d t t l l t t f f t t i r 2 e : w y w y y 9 ",
"2 2 y 2 6 e - 7 4 6 8 8 8 d d 8 8 d 8 8 8 f t f t i 4 2 : %.^ ^ s s p 3 t 5 7 7 8 6 8 e l u f t t f t 8 8 t 7 4 e ; w y y y y 9 ",
"2 9 6 2 7 e : 7 5 6 8 4 4 d 8 d z 8 8 d t 8 t t t t 2 < - ^ %.5.s s a 1 t 6 7 6 6 6 6 f l N l f f t t 7 7 r r 5 e : 9 y y w y 9 ",
"9 2 y 2 r t < 7 5 6 6 6 6 8 d d f d d 8 8 8 8 t 7 i < 2 - ( 5.5.s s a < t 7 7 6 5 4 8 f l l N f t t w 6 7 7 7 6 , ; , e q w w 9 ",
"2 5 r 5 y t : 6 5 6 8 6 6 8 8 d f f 8 d 8 7 6 6 7 7 < - < 5.8.i.s s a 3 y 5 6 5 6 6 8 t t f t t 6 7 6 6 7 r 6 3 , ; : 9 9 q w 9 ",
"2 w y y u u < 6 > 6 6 8 4 d 8 8 8 8 8 8 6 6 6 6 5 t < < : 5.8.i.l.s a 1 e 3 6 4 6 6 6 6 e r e e 5 4 4 5 5 r 5 < : ; 9 9 9 9 q 9 ",
"9 9 u u i u : 5 > 5 6 4 4 6 8 8 6 4 4 4 6 6 7 6 5 r - - : ;.i.i.s s a = r < 5 6 6 5 5 6 6 e 6 w > > > < 4 7 2 - , : : 9 9 w y 9 ",
"9 w u y s u : 2 : 4 6 6 6 6 5 8 8 d > d 6 6 4 6 5 6 2 - 2 a i.a s s y 9 y - 4 4 6 6 5 5 e 5 5 4 > 4 4 4 3 6 2 - 2 = 9 2 ; y w y ",
"9 9 y e u u , w > : 5 4 5 4 5 4 4 4 > > > d 6 > 5 5 < $ : a %.^ s p y 1 t < 4 4 5 4 , , 4 5 , , - 4 5 4 4 5 3 - 4 = w 9 9 w y w ",
"9 w y q u y : : : : 4 5 4 6 4 6 4 4 > 4 > > , > 2 4 - * < a 5.a y y r 1 u 2 4 4 5 > > > , , , , - 4 : , 5 5 2 < < * w 9 9 q 9 q ",
"9 w y q u u : e 4 , 5 6 5 5 6 6 4 d 4 4 6 > > > - 3 - $ - t ^ p y r q < t 2 5 6 > > , > , , , - , > , > < 5 < - : = r w 9 w 9 w ",
"1 9 u y p p : 9 : 4 5 5 5 5 6 6 d 4 4 4 4 4 > > - 2 - $ = y a p y 0 r 1 t < 4 5 > > > > , , , > > 4 > > - 4 2 - : = y y 9 0 9 9 ",
"9 q u y y u ; w : : 4 4 , : 4 4 4 4 4 4 4 > > > - 4 = @ * t a i y 0 r 1 t < 4 4 4 4 > , , , , , : > > - - 2 2 = - ; u u w w 9 9 ",
"9 w y w y y : w - - : - > > - > 4 > > > > > > > - < = . = y i u q w r < t < - 4 > > > > , , , , > > - - - < - - - ; u u q y 9 w ",
"q q y : 9 q : y : : 4 2 : > 4 2 > > > > > % > > - < - . = y s p y w y 1 y - - 2 > > - - , e , : 2 4 2 - < 2 < - = ; i a r y q w ",
"y q w 9 w w w w = - - = = < 1 < - = = = - = = = & ; & X ; 9 y y r 3 3 2 w : * ; ; ; : ; ; ; ; ; * ; ; & & & & & ; 9 u e 9 9 e 9 ",
"q y 9 9 q w 9 w 5 9 5 5 7 3 3 r r r 0 9 0 0 9 9 ; 9 ; & ; y p y 0 1 < r q w 9 w e k e 9 e e e q y y y u y y y y & : y y 9 w k : ",
"q 9 q 9 9 w w r w w 7 r 7 r t r r r r w 7 5 5 2 9 9 9 : : q y r 0 < 1 r e y w u k y k y y k y k r q q y y q w w ; : q e 9 e q 9 ",
"q 9 9 9 9 w r w w 5 5 3 7 7 5 7 5 3 4 3 9 2 2 2 9 w w 9 : w r w t 3 2 w r r w y y y 9 k y y k y u y y u u u s y 9 9 e e 9 e k w ",
"q 9 9 9 w q e w r e e w 6 6 6 2 5 4 4 2 5 5 5 2 e 9 , w w w w w 3 3 2 9 e : w e q q k e y y k s H a s s #.u s u e w y e 9 e k y ",
"q q 9 q 0 r w w e e e e 6 6 6 5 7 3 5 5 6 6 7 6 , e e , , 5 , 2 3 3 2 2 e 9 9 w 9 e q y k y y y r r y y y y y y k q u y w y y y ",
"q q q q y 0 w w 5 e 6 6 6 , 6 5 4 4 5 4 5 5 4 6 , e , , 5 , 5 , - < 2 2 : 9 , 9 9 9 9 e w y w w y y y y y y y y y w u k y k s k ",
"q q q q y e w w , , 5 6 , 6 6 8 8 5 7 4 5 5 5 , 6 , , , , , 5 6 < 3 2 2 : 9 : 9 9 9 e 9 y 9 w 9 w q w r e y y y w 9 y s s k s y ",
"q q 0 p p r r 7 e e 6 6 , d 6 4 4 4 4 4 4 8 4 4 5 4 , , , 6 , 6 < < : : < : < : w 9 w 9 w q q y 9 w r y p p r r w 9 e k u s k y ",
"q q q q y t r w e , , 6 , , 6 > 8 4 4 4 8 4 4 4 5 , 5 > , , , 5 : < : 2 2 2 2 2 9 2 2 2 9 w w w w 0 r r y y y r y 9 y #.k y s y ",
"y q q r y t e w e 6 6 6 d 6 6 6 4 4 4 4 4 4 4 4 5 , 4 , 6 , , , : 2 2 2 2 5 9 w 9 9 w 9 w q r r r r r y y y y y u y u #.y u k e ",
"y y r r y t t 7 6 , 6 8 6 , 6 4 4 4 4 4 4 4 4 4 4 , 5 , , 6 6 6 4 5 2 5 2 r 2 2 w w w r q r y y r 0 r y p y y y u y s #.y u y w ",
"u y y e y t r e 5 6 5 4 4 4 4 4 4 < 4 2 3 4 4 < 5 2 , 5 5 2 6 w 6 6 w 6 w 5 2 9 w 9 w 9 9 w 0 y r r y y t p y y y y k u y y u y ",
"u y q e e t e 6 6 6 4 6 3 8 4 4 5 5 5 4 8 4 < 3 5 4 2 4 , w 5 w w w w w r 5 r 2 9 2 2 9 9 w 0 r q r q r r r r r w y u #.y k u e ",
"u y u u t u t 6 7 4 4 8 4 4 4 3 < < 2 < < 3 < < 4 : 2 , 2 9 9 5 6 5 w 6 2 w 5 2 2 9 9 9 9 9 9 0 2 0 9 2 9 9 9 w w w s #.e k u w ",
"u y r u u t e 6 < 4 < < < 4 < < < < < - - < < < : : - : : : 5 2 : 2 2 2 2 < 2 2 ; = ; ; ; : : 1 < 3 2 1 2 2 2 2 ; 9 s u y y y 9 ",
"y t t 3 t i 5 6 : : > - 2 3 6 5 2 < : 2 : : - = = 2 4 = & : 5 5 w 9 < = = 1 < = = : : : - 1 : = = = = = < < 1 = . ; s y w 9 q 9 ",
"p t t 7 u i 9 w 6 w w w w e r r r 6 6 w w 6 5 2 2 r 5 ; = : 2 9 2 3 1 1 < 2 1 3 < 2 2 2 2 2 2 2 3 3 3 2 9 9 9 < X = s y y 9 w 9 ",
"a i i r i ^ 5 y w w r r r u u t r y w w r r r w w w 5 = * < w 2 3 3 < = ; 2 r 2 p y t i p u t t r 7 r 7 r 7 2 3 X ; s p q q q 9 ",
"s p i r p ^ 5 e 2 5 5 w e e e w w w 5 5 5 5 5 w 5 5 : & & 2 w 2 : 1 < = = 3 r r r r r r r 5 w 5 5 3 7 7 3 7 1 < X ; s p y w q 1 ",
"s i p r t p 2 r : : : 5 w e 6 , 5 : 2 : 2 5 2 w w 2 = . & : 5 2 2 2 < = < 1 w 2 5 5 5 5 4 5 , 2 < 5 5 < 2 7 2 = X X s y q 0 q : ",
"i p u 3 t p 2 w 4 : w e w w w w w w 5 w w w w 5 w 5 : @ @ : 9 < 0 2 1 = = 3 9 2 y y y y r r w e 2 3 3 3 3 7 2 : X ; s r y w 9 ; ",
"s p p 2 y y 2 w 2 5 5 w e w e 6 6 5 5 5 6 5 w 5 5 6 - @ @ - 6 2 7 5 < = - 2 3 4 , 4 5 2 5 5 6 4 5 7 5 5 5 7 2 2 X X a r 0 q w ; ",
"a p 7 3 r t < 6 : 2 4 : 6 6 5 5 w 2 5 5 6 w 5 2 : 2 - @ @ : 6 5 3 2 < = = < - < 5 6 5 6 w w 5 e 5 5 5 < : 3 2 = . X p 0 w 9 9 ; ",
"p r r 2 0 y ; r : 4 e 5 e 6 e e 6 6 e 5 w 6 5 5 6 : = > @ 5 5 6 4 2 5 = > * e e 5 w e e 5 5 6 w 3 6 4 4 < 3 < - X & w w 9 : ; ; ",
"p q r 1 r r - 2 ; 5 5 6 5 w e 6 5 5 5 w w 5 5 6 5 - % : O 4 , 5 5 : 6 @ - * e , 6 w 6 6 6 , 6 e 8 6 3 4 4 3 3 = X & y y : 9 ; ; ",
"p q y 9 0 r < 9 - 5 6 6 , 6 8 5 , 6 5 6 6 6 5 w 4 : * - @ , 5 5 5 4 w & > * 6 , 5 6 6 6 , 6 6 6 8 3 3 4 4 7 < < X O y 9 ; : ; ; ",
"p p r 1 2 r = 2 - 4 5 , , 6 8 4 6 , 6 5 6 4 5 4 6 > % : @ 4 5 5 r 5 e * , * e , , 5 , 6 6 e , 6 4 3 4 4 < 7 < - X & e : & ; & ; ",
"p q q 9 9 r = 2 - , , > > 4 6 > 6 5 5 6 5 , > > , , * , @ , 5 5 6 5 6 @ > * e > , , > 6 6 6 , e 4 4 4 4 < 4 < * & & r w ; 9 ; : ",
"p q 0 1 2 9 = 2 ; > > > > 4 4 6 6 6 5 5 , , - - 4 - % , % , , 6 6 2 4 @ > * , > > 6 > 6 , e 6 , 4 4 3 4 4 6 3 - * & w : & 1 ; ; ",
"y q 0 : 9 9 * : * - > > > > 6 > , 6 5 5 , > > - 4 - * , @ 5 4 5 6 > > @ > * , > > > 6 , d , , , 4 4 4 3 5 5 , - & O , : & ; ; & ",
"p y q 1 9 0 = : - - > > > > > 6 6 5 , 5 4 > : - 4 - - 4 @ 5 5 4 6 : > + > * , > , , , , , d 6 6 4 4 4 < 4 < - = ; & , : & 1 & & ",
"q 0 q 1 9 1 ; X * * - > > > 4 > 4 > > > > > > % > % % > % > 6 6 4 6 % + % % % 4 4 4 > > > 6 > > > > > > % > % % $ . : : = ; & & ",
"q 0 1 9 9 1 ; ; & * - > > % > > > > > % > > % % > % % % % > 4 4 4 6 < + % < % 4 > % > > > > > > > % % % % % % % $ . < : ; : & * ",
"q 0 9 0 1 1 ; = & & > % % > > > > % % % % % % % % # % % % > 4 > > 4 < + + % % > > % > > > > > > % % % % % $ % + - . 9 , & : * ; ",
"q 0 9 1 1 ; ; = * * * * % % > > > > % > % % % % # o # % + > 4 > < 4 % + % % + % > > > % > > % % % % % % $ % $ % ; & : : ; : : : ",
"q 0 9 9 1 ; ; & # * - > % % % > % > % % % % % % % + % % % % 4 4 < 4 % . $ % % % % > > > > % % % % % % % % % $ $ ; O : 9 ; , : * ",
"q 0 9 1 1 : = & # * - * > % > > % % % % # # o # % @ @ - % % 4 > < 4 - + % % % - % % % % % > % % % % + # $ $ $ . * X : : * 9 * ; ",
"q q 9 1 ; ; = = # * % * % % > % % % % % # # # o % @ * * % - 4 > < 5 - @ % - % - % - % - > * > * % # $ @ $ $ $ X & X * ; * ; ; , ",
"q 0 9 2 ; ; = = # * * > % % % % > % % % % % # # @ o % * % - 4 > - < - @ $ $ $ % % % % - - > % # % # $ $ $ $ $ $ & O : ; * * * * ",
"9 0 2 ; 2 1 = = . @ = % * # # # * % @ # % % % @ % + % % @ % > - - < = . @ $ @ $ O & * * * * * * # % % @ $ $ . . $ . < < * - , * ",
"9 0 1 ; 2 ; & = . + @ @ # # @ O @ # @ @ @ @ @ @ @ + % * @ * > : < < % . + $ @ $ * * * * * * * * @ + @ @ + . . . $ . < = * , * , ",
"2 0 1 < 2 ; X = O @ @ = * & # # * @ @ @ @ * @ = @ . = * @ - , - - < $ . @ @ @ $ & O * O * O * O % $ @ $ X $ X $ $ . < = * , > % ",
"0 r 2 1 2 ; X = @ @ @ @ * * # # * @ @ @ @ & = @ @ O @ ; @ - : - = 2 *   . @ . @ & & * * * O O & = @ @ $ $ $ $ X $   - = * , * > ",
"0 7 1 < < ; . * . . @ . @ O O @ @ O   @ . . @ . @ O @ - @ * - - - < * . . @ . @ & O * & * O O & O   . . + . . X $   = = % 4 % % ",
"2 9 < ; 2 = @ & & & @ @ @ * & * = @ O @ @ @ @ @ @ O = * @ = ; = = 2 = . & @ . @ O & & O * O & O + @ . . . . . . $   % % - - # # ",
"2 3 < = < = & = & - = & ; * - > - * = = * = * & * & - - @ % - - = < - . @ & . @ @ O @ @ * * * & & & @ & = = $ $ =   $ $ @ - # O ",
"2 r 1 = 2 ; = = & ; * * * ; - - - ; = = * $ = & < * - ; @ - - - = 2 = . = * @ & & & & & & & & * & @ & @ $ X X $ =   $ + @ % O o ",
"< < 1 < ; ; w e y y k y y k k #.;.s s s s a s a :.u : ; 5 u ^ a y k q e q 9 9 9 9 9 9 , ; ; ; * 2 : : - : - : > e * * * * O O * ",
"< 1 < < - : : w 9 9 9 k y q s k s a a a a s a y a u 5 : 6 t t t e e 9 q y e 9 9 9 , ; ; ; ; ; ; ; ; : ; ; ; : : ; * * * * * * * ",
"< 1 < < ; - : : 9 9 9 9 q q k q y y q y y y u y y y e y r r 5 2 : 9 9 9 9 9 ; 9 ; ; ; ; & ; ; ; ; ; = ; - = - ; , ; * * * * * * ",
"= < = - < - ; ; ; ; 9 9 9 9 9 9 9 1 9 w w q w w e e y y r w < : ; ; ; : ; 9 ; ; ; ; ; ; & ; ; ; = ; * ; ; = ; - * * * * , * O * ",
"< = = = : : * X & ; ; ; ; 9 9 9 : ; 9 ; 9 9 9 w 2 w 7 r 6 2 2 - 9 : 9 9 9 9 : ; & & ; ; ; ; ; ; 1 = ; ; ; * - : ; * * * * * * * ",
"= < = < , * & X & & ; ; ; 9 ; ; 9 9 ; ; 9 w w w 2 5 w r r 5 5 2 : : ; ; ; ; ; & ; ; ; 9 : ; ; ; < 1 ; : ; - : : * ; * * , * * * ",
"< $ < < ; ; & & ; ; ; ; ; ; ; 9 ; 9 9 9 w 9 w w r r r r t y r 5 : : : : : : ; ; ; ; 9 ; : ; ; ; 1 < - ; : ; - : ; * * * , * O * ",
"< < = < ; & ; & ; ; ; ; ; ; ; 9 9 ; 9 9 w w q w r r t t p u t w 9 9 9 9 9 9 9 9 ; 9 9 ; ; : ; ; ; ; : ; ; * : : : * * ; * * * * ",
"$ < < % < % X < ; ; : ; 9 9 9 q 9 9 9 0 9 0 y w r r e t p t t t y w 9 q w 9 9 : 9 1 : ; : 1 1 ; 1 * = = = = - = : O * * * * * * ",
"< < < - < = X 1 : ; 9 9 9 : 9 9 w 9 9 w w r w w t r y t t p t y w w 9 9 9 9 9 9 9 9 ; : 1 ; ; ; 1 ; ; = = ; - : : X # * * * * O ",
"$ < < - < < = < ; ; 9 1 9 9 ; 1 9 9 9 9 9 9 w w r r y r t y 7 r 9 9 9 9 9 9 9 9 ; ; ; ; : 1 ; ; = 1 = = ; = = : : O * > * * * O ",
"$ < - $ - = * < & ; ; ; ; ; ; ; 9 1 9 9 2 9 2 9 2 3 5 w w w 2 < 9 ; 9 : ; 9 ; ; ; ; ; ; ; ; ; X = = 1 : = = = - * X * > , * , # ",
"* > - - : - = 2 ; ; ; ; ; ; ; ; : 1 9 : 3 2 2 : 2 1 5 2 5 5 2 < 1 1 1 1 1 1 ; 1 ; ; ; ; 2 2 ; ; = ; : : < ; - ; : O * : * * * O ",
"- , > - < - ; 2 1 ; ; ; ; 1 1 1 9 : 9 9 1 0 2 9 5 2 w 2 r 5 w 2 9 9 w 1 9 9 9 1 9 9 9 9 1 9 9 1 ; 2 9 : < ; 2 2 : * - , , - > @ ",
"* , - - - * @ - 1 1 X 1 ; ; 1 1 9 9 1 9 9 2 2 9 5 0 5 r e r r r w 9 9 9 9 q 9 9 9 9 9 1 0 w 9 9 9 1 2 9 2 2 2 4 , * * , > * - * ",
"% - * % ; = @ = X X ; ; ; 1 ; ; ; ; ; : 2 2 9 9 5 2 5 r t y 7 r q 9 9 w q 9 9 9 9 9 9 1 1 1 9 9 w 1 : 2 2 2 2 2 : & * * # # & O "
};
